# xmcd
#
# Track frame offsets:
#	150
#	24457
#	47557
#	68771
#	86611
#	112734
#	131448
#	168444
#	190958
#	223713
#	236540
#	255520
#
# Disc length: 3674 seconds
#
# Revision: 9
# Processed by: cddbd v1.5.2PL0 Copyright (c) Steve Scherf et al.
# Submitted via: Jack! The Knife
#
DISCID=990e580c
DTITLE=Metal Church - Hanging In The Balance
DYEAR=1993
DGENRE=Heavy Metal
TTITLE0=Gods Of Second Chance
TTITLE1=Losers In The Game
TTITLE2=Hypnotized
TTITLE3=No Friend Of Mine
TTITLE4=Waiting For A Savior
TTITLE5=Conductor
TTITLE6=Little Boy
TTITLE7=Down To The River
TTITLE8=End Of The Age
TTITLE9=Lovers And Madmen
TTITLE10=A Subtle War
TTITLE11=Low To Overdrive
EXTD=
EXTT0=Howe, Vanderhoof, O'Neill
EXTT1=Howe, Vanderhoof
EXTT2=Howe, Marshall, Vanderhoof
EXTT3=Howe, Vanderhoof
EXTT4=Howe, Vanderhoof, O'Neill
EXTT5=Wells, Vanderhoof
EXTT6=Marshall, Vanderhoof
EXTT7=Howe, Vanderhoof
EXTT8=Howe, Vanderhoof, O'Neill
EXTT9=John Marshall
EXTT10=Marshall, Vanderhoof
EXTT11=Kurdt Vanderhoof
PLAYORDER=
